Coordinates
version=1
nRows=8
nColumns=63
inDegrees=yes

Units are S.I. units (second, meters, Newtons, ...)
If the header above contains a line with 'inDegrees', this indicates whether rotational values are in degrees (yes) or radians (no).

endheader
time	pelvis_tilt	pelvis_list	pelvis_rotation	pelvis_tx	pelvis_ty	pelvis_tz	hip_flexion_r	hip_adduction_r	hip_rotation_r	knee_angle_r	knee_angle_r_beta	ankle_angle_r	subtalar_angle_r	mtp_angle_r	hip_flexion_l	hip_adduction_l	hip_rotation_l	knee_angle_l	knee_angle_l_beta	ankle_angle_l	subtalar_angle_l	mtp_angle_l	L5_S1_Flex_Ext	L5_S1_Lat_Bending	L5_S1_axial_rotation	L4_L5_Flex_Ext	L4_L5_Lat_Bending	L4_L5_axial_rotation	L3_L4_Flex_Ext	L3_L4_Lat_Bending	L3_L4_axial_rotation	L2_L3_Flex_Ext	L2_L3_Lat_Bending	L2_L3_axial_rotation	L1_L2_Flex_Ext	L1_L2_Lat_Bending	L1_L2_axial_rotation	L1_T12_Flex_Ext	L1_T12_Lat_Bending	L1_T12_axial_rotation	Abs_r3	Abs_r2	Abs_r1	Abs_t1	Abs_t2	neck_flexion	neck_bending	neck_rotation	arm_flex_r	arm_add_r	arm_rot_r	elbow_flex_r	pro_sup_r	wrist_flex_r	wrist_dev_r	arm_flex_l	arm_add_l	arm_rot_l	elbow_flex_l	pro_sup_l	wrist_flex_l	wrist_dev_l
0.649123	1.716215	-2.323037	91.581887	0.195725	0.859581	0.500328	7.433099	4.487939	9.176760	20.505209	0.357883	43.198787	-13.904078	0.000000	1.312735	-0.584949	15.114565	13.301008	0.232146	43.697291	-12.511212	0.000000	0.294724	0.333939	0.650442	0.547332	0.444138	0.691095	0.484202	0.811938	0.691095	0.336840	0.811938	0.569137	0.273681	0.680968	0.528484	0.168405	0.517271	0.487832	2.105185	3.777580	3.617565	0.000000	0.000000	27.762062	4.368735	1.675766	20.017364	-11.977958	80.769429	47.811002	47.141753	5.688077	10.258039	22.256928	-6.087139	75.816096	47.117359	88.598455	3.415321	9.737955
0.666667	1.526710	-2.364734	91.108944	0.196297	0.859397	0.500368	7.522463	4.321165	9.614576	20.676540	0.360874	43.218231	-13.934108	0.000000	1.299524	-0.353324	14.850754	13.270288	0.231610	43.650768	-12.894623	0.000000	0.297475	0.315093	0.749280	0.552441	0.419074	0.796110	0.488722	0.766117	0.796110	0.339984	0.766117	0.655620	0.276236	0.642538	0.608790	0.169977	0.488079	0.561960	2.124836	3.564394	4.167270	0.000000	0.000000	27.782791	4.339105	1.632767	19.688184	-12.038437	79.610057	47.864691	50.837102	5.632669	9.814815	22.422224	-6.085677	76.279745	47.102310	88.633883	3.456652	9.579116
0.684211	1.361681	-2.397480	90.624807	0.196912	0.859256	0.500214	7.572502	4.202166	10.167713	20.808680	0.363180	43.200290	-14.071728	0.000000	1.224508	-0.142915	14.708501	13.179775	0.230030	43.562655	-13.422370	0.000000	0.300981	0.300000	0.842281	0.558952	0.399000	0.894924	0.494481	0.729420	0.894924	0.343991	0.729420	0.736996	0.279491	0.611760	0.684354	0.171980	0.464700	0.631711	2.149876	3.393661	4.684516	0.000000	0.000000	27.799290	4.327124	1.682923	19.367619	-12.088060	78.564509	47.896586	54.479344	5.522088	9.359136	22.553733	-6.066685	76.695905	47.049765	88.659297	3.564919	9.447359
0.701754	1.238629	-2.422940	90.170672	0.197515	0.859169	0.499926	7.598828	4.123395	10.671606	20.906132	0.364881	43.186136	-14.147653	0.000000	1.134339	-0.005479	14.363858	13.083908	0.228357	43.551409	-13.605710	0.000000	0.305022	0.290565	0.926480	0.566457	0.386451	0.984385	0.501121	0.706479	0.984385	0.348610	0.706479	0.810670	0.283244	0.592520	0.752765	0.174290	0.450085	0.694860	2.178743	3.286927	5.152804	0.000000	0.000000	27.815135	4.295367	1.791268	19.039282	-12.128239	77.579713	47.866267	58.251599	5.491407	8.772997	22.695453	-6.004476	77.189224	46.936416	88.716054	3.642620	9.303592
0.719298	1.152851	-2.443642	89.738778	0.198118	0.859139	0.499513	7.604683	4.094134	11.211917	20.964896	0.365906	43.159931	-14.266162	0.000000	1.016886	0.090691	14.090270	12.960726	0.226207	43.538439	-13.799722	0.000000	0.309644	0.286386	0.998965	0.575040	0.380893	1.061400	0.508715	0.696319	1.061400	0.353892	0.696319	0.874094	0.287536	0.583998	0.811659	0.176931	0.443612	0.749224	2.211758	3.239655	5.555944	0.000000	0.000000	27.829740	4.273801	2.006552	18.732317	-12.147124	76.828567	47.813699	61.281278	5.380492	8.196743	22.781342	-5.910171	77.555617	46.790149	88.804333	3.845252	9.247018
0.736842	1.109362	-2.463414	89.336656	0.198715	0.859169	0.499013	7.598203	4.117663	11.775575	20.979613	0.366163	43.128313	-14.417163	0.000000	0.895570	0.127946	13.775813	12.829810	0.223922	43.567539	-13.844741	0.000000	0.314878	0.287839	1.059741	0.584761	0.382826	1.125975	0.517314	0.699851	1.125975	0.359875	0.699851	0.927274	0.292396	0.586961	0.861040	0.179922	0.445862	0.794806	2.249145	3.256091	5.893963	0.000000	0.000000	27.843779	4.247883	2.303335	18.426757	-12.132689	76.239597	47.705540	63.828913	5.314287	7.593569	22.793966	-5.784040	77.773357	46.624094	88.945586	4.091151	9.242489
0.754386	1.105249	-2.464048	89.002040	0.199241	0.859275	0.498477	7.560696	4.162277	12.180894	20.945558	0.365569	43.143835	-14.403119	0.000000	0.770833	0.099243	13.368582	12.706059	0.221763	43.667251	-13.628856	0.000000	0.316802	0.294373	1.105093	0.588334	0.391516	1.174161	0.520475	0.715738	1.174161	0.362073	0.715738	0.966956	0.294183	0.600285	0.897888	0.181021	0.455984	0.828819	2.262887	3.330006	6.146194	0.000000	0.000000	27.863418	4.214616	2.663286	18.129219	-12.099054	75.806118	47.583942	65.820779	5.267397	6.977380	22.786679	-5.634540	77.999072	46.455101	88.976807	4.260287	9.258422
0.771930	1.136373	-2.481830	88.730593	0.199700	0.859395	0.497924	7.529720	4.256743	12.628270	20.873822	0.364317	43.138684	-14.513987	0.000000	0.671855	0.045631	13.168442	12.580976	0.219579	43.743299	-13.573981	0.000000	0.320721	0.305604	1.126728	0.595611	0.406454	1.197149	0.526912	0.743047	1.197149	0.366552	0.743047	0.985887	0.297821	0.623189	0.915467	0.183260	0.473381	0.845046	2.290877	3.457058	6.266524	0.000000	0.000000	27.876668	4.195459	3.139034	17.892928	-12.025479	75.737985	47.461379	66.373917	5.192509	6.439560	22.632376	-5.478780	77.915516	46.278515	89.026431	4.495990	9.291987
